<svg width="133" height="36" viewBox="0 0 133 36" fill="none" xmlns="http://www.w3.org/2000/svg">
<g id="Group 2">
<g id="flex"><path fill-rule="evenodd" clip-rule="evenodd" d="M136.419 11.6789C136.163 13.175 137.144 14.3071 138.593 14.2667C139.36 14.2667 140.043 13.9432 140.725 13.7006C140.98 14.4689 141.322 14.9541 141.961 15.318C142.558 15.6819 143.155 15.8436 143.922 15.8841C146.011 16.0054 147.588 14.9541 148.867 14.2262C148.995 14.1454 149.08 14.0645 149.123 13.9432C149.166 13.8219 149.592 13.6197 149.677 13.5389C149.762 13.4984 149.762 13.3771 149.805 13.2963C149.848 13.2154 150.359 12.8515 150.786 12.6898C150.871 12.6493 150.956 12.1641 150.7 12.0428C150.445 11.9215 150.061 12.245 149.762 12.4067C149.421 12.6089 149.08 12.7302 148.825 12.8515C148.228 13.1345 147.631 13.4984 146.906 13.7006C145.116 14.1858 143.538 13.5389 143.069 12.2854C143.581 11.8406 144.05 11.3959 144.519 10.9511C145.627 9.94023 147.588 7.23114 147.205 6.70549C146.949 6.42246 146.437 6.62463 146.224 6.70549C146.139 6.74593 145.968 6.70549 145.883 6.74593C145.414 6.90767 144.903 7.31201 144.434 7.55461C143.922 7.83765 143.453 8.08026 143.027 8.44416C141.876 9.41458 141.023 10.8298 140.639 12.245C139.531 12.4876 138.806 11.4363 138.977 10.385C140.469 9.25285 141.705 7.91852 143.027 6.54376C143.837 5.69464 144.434 4.76466 145.03 3.83467C145.158 3.6325 145.158 3.5112 145.244 3.26859C145.329 3.02599 145.542 2.74295 145.627 2.37904C145.84 1.81296 146.096 0.842542 145.67 0.4382C145.414 0.236029 144.05 0.721239 143.453 1.08515C142.856 1.44905 142.302 1.69166 141.79 1.9747C141.492 2.17687 141.194 2.54078 140.895 2.82382C140.597 3.10685 140.384 3.5112 140.128 3.83467C139.105 5.24987 138.38 6.62463 137.57 8.20156C137.314 8.7272 137.016 9.45502 136.803 10.0615C136.717 10.3041 136.717 10.3446 136.589 10.4659C136.419 10.7085 135.652 11.1533 135.353 11.2746C135.268 11.315 134.16 11.6789 134.415 12.3258C134.671 12.5684 135.779 11.8811 136.419 11.6789ZM145.03 8.08023C145.073 8.08023 145.116 8.08023 145.116 8.12066C145.244 8.4037 144.988 8.76761 144.817 9.01021C144.348 9.65716 143.751 10.5467 143.155 10.8297C143.368 9.65716 144.178 8.76761 145.03 8.08023ZM143.155 2.2577C143.197 2.17683 143.283 2.13639 143.496 2.17683C143.666 2.21726 143.155 3.59202 142.856 4.19854C142.089 5.65417 140.853 6.82676 139.829 7.95891C140.639 6.05851 141.833 3.87506 143.155 2.2577Z" fill="white"/>
<path fill-rule="evenodd" clip-rule="evenodd" d="M173.977 21.9896C173.38 21.9087 172.442 21.6257 171.888 21.5852C171.632 21.5448 170.225 21.3426 169.415 21.5044C169.202 21.5448 168.989 21.5448 168.776 21.5044C169.884 21.2213 171.121 21.1 172.4 21.4235C172.357 21.4235 172.868 21.4639 173.337 21.5044C173.295 21.5044 173.38 21.5044 173.38 21.5044C173.934 21.6257 174.275 21.5448 174.787 21.4639C174.403 21.1809 173.551 21.3426 173.38 20.8574C173.593 20.6553 174.105 20.8574 174.403 20.8574C174.275 20.6957 174.02 20.6957 173.892 20.5744C174.02 20.534 174.147 20.6553 174.233 20.5744C174.062 20.4935 174.19 20.4531 174.318 20.4127C173.977 20.3318 173.465 20.3318 173.508 19.9679C173.849 20.0083 174.488 20.0892 174.531 20.0892C174.574 20.0487 174.318 19.9679 174.318 19.887C173.849 19.8061 173.21 19.5635 172.741 19.3614C172.783 19.2401 172.655 19.1592 172.485 19.1188C173.21 19.1996 173.849 19.3614 174.531 19.4018C174.403 19.3614 174.574 19.3209 174.574 19.3209C174.531 19.3209 174.446 19.2805 174.403 19.2805C174.446 19.2805 174.446 19.2805 174.488 19.2805C174.488 19.2805 174.403 19.2805 174.318 19.2401C174.275 19.2401 174.233 19.1996 174.19 19.1996C173.892 19.1188 173.38 18.957 173.082 18.7548C173.636 18.7953 174.147 18.8357 174.659 18.8762C173.551 18.4314 171.291 18.4718 170.097 18.9166C169.33 19.2401 167.966 19.604 167.113 20.0487C167.284 19.604 167.582 18.9975 167.497 18.5122C167.412 18.6335 167.412 18.8762 167.284 18.9166C167.241 18.8762 167.369 18.674 167.199 18.7953C167.284 18.4314 167.582 18.0675 167.54 17.744C167.369 17.6631 167.369 17.5014 167.113 17.461C167.071 17.461 167.071 17.5014 166.985 17.5418C167.028 17.461 167.156 17.4205 167.071 17.3397C166.772 17.2992 166.602 17.1779 166.261 17.2588C166.303 17.4205 166.389 17.5418 166.261 17.6631C165.749 17.6631 165.664 17.2184 165.451 17.0162C165.195 16.9757 165.195 17.1779 165.024 17.2184C164.982 17.2588 165.024 17.5823 164.939 17.7844C164.769 18.2292 164.598 18.7953 164.342 19.2401C164.172 19.5231 163.959 19.9679 163.788 20.2105C163.404 20.7766 163.277 21.4235 162.893 21.9087C162.935 22.1109 162.722 22.1513 162.637 22.3131C162.594 22.3939 162.594 22.5557 162.509 22.677C162.339 23.0004 162.04 23.3239 161.827 23.6878C161.145 24.6582 160.42 25.6691 159.781 26.5586C159.354 27.1652 158.928 27.7312 158.502 28.2973C158.331 28.5399 158.118 28.7017 158.033 28.9443C157.99 29.0656 158.076 29.2273 158.033 29.3082C157.99 29.5103 157.777 29.6721 157.82 29.9147C157.905 29.9551 158.076 29.9551 158.161 30.036C158.033 30.3999 157.692 30.5616 157.777 30.966C157.99 31.0468 158.161 30.8851 158.289 31.0064C158.459 30.8447 158.63 30.6021 158.8 30.3999C158.971 30.2382 159.184 29.9147 159.44 30.036C159.312 30.3999 158.886 30.5616 159.056 30.966C159.269 31.0873 159.397 30.8851 159.568 31.0064C160.122 30.4403 160.548 29.7934 161.188 29.3486C161.827 28.5803 162.424 27.7717 162.935 26.9226C163.319 26.5182 163.66 26.1139 164.001 25.7095C164.342 25.3052 164.598 24.82 164.939 24.3752C165.11 24.173 165.451 24.0517 165.706 23.89C166.474 23.3239 167.071 22.8387 168.009 22.4748C168.989 22.1109 170.012 21.8278 171.035 21.8278C171.632 21.9087 172.314 21.8683 172.783 22.1109C172.783 22.1109 172.826 22.1513 172.868 22.1513C173.721 22.2322 174.275 22.3535 175 22.1918C174.872 22.03 174.531 22.0705 174.275 22.03C173.977 22.03 174.062 21.9896 173.977 21.9896ZM160.207 27.4482C160.122 26.7608 160.633 26.3161 160.932 25.8713C160.974 25.8713 161.529 25.1435 161.827 25.0222C161.273 25.7904 160.676 26.5991 160.207 27.4482ZM163.745 22.4344C163.404 23.0005 163.021 23.5261 162.509 24.0113C162.467 23.6474 162.978 23.2431 163.149 22.8387C163.873 22.2726 164.172 21.3022 164.683 20.534C164.726 20.4935 164.641 20.2509 164.641 20.2105C164.854 19.9275 165.024 19.5231 165.238 19.2401C165.28 19.2401 165.28 19.2401 165.323 19.2805C165.323 19.4827 165.28 19.7253 165.238 19.7657C165.195 19.8062 165.238 20.3318 165.11 20.5744C164.811 21.2618 164.172 21.9492 163.745 22.4344Z" fill="white"/>
<path fill-rule="evenodd" clip-rule="evenodd" d="M158.928 20.6552C159.397 19.5635 160.122 18.7548 160.633 17.744C160.761 17.744 160.804 17.6631 160.889 17.6226C160.548 17.1779 160.207 17.3396 159.653 17.4609C159.482 17.7035 159.269 17.9057 159.099 18.1483C159.227 17.9057 159.354 17.6631 159.482 17.4205C159.227 17.38 159.227 17.5822 159.056 17.5418C158.885 17.8248 158.587 18.027 158.459 18.3909C157.905 18.7144 157.607 19.7252 157.095 20.1296C157.351 19.7252 157.649 19.2804 157.905 18.8357C158.246 18.31 158.715 17.744 158.8 17.1374C158.63 17.097 158.587 16.8948 158.417 16.814C157.734 16.8544 157.649 17.4609 157.223 17.7844C156.754 18.1079 156.541 18.6739 156.157 18.9974C156.114 19.0783 156.114 19.0378 156.157 19.1591C155.688 19.7657 155.347 20.453 154.708 20.8978C154.494 21.4235 153.983 21.6661 153.685 22.1108C153.216 22.4343 153.002 22.96 152.661 23.4047C152.491 23.6473 152.406 23.8091 152.278 24.0517C152.15 24.2539 151.894 24.3752 151.894 24.6582C151.382 25.1434 150.913 25.7095 150.359 26.2351C150.061 26.4777 149.805 26.7608 149.507 26.9629C148.995 27.2864 148.441 27.7312 147.929 28.0142C147.077 28.4186 145.926 28.2973 145.67 27.4481C145.585 27.1247 145.67 26.7608 145.713 26.4373C145.883 25.0221 146.778 23.9304 147.631 23.1621C148.015 22.5961 148.526 22.1513 148.952 21.5852C149.421 20.9382 149.89 20.17 150.359 19.6039C150.317 19.6039 150.317 19.5635 150.317 19.5231C150.7 19.0783 151.041 18.6335 151.382 18.1483C151.297 17.9866 151.425 17.8653 151.468 17.744C151.169 17.7035 151.084 18.027 150.913 18.2292C150.658 18.5122 150.359 18.7548 150.104 18.9165C150.274 18.6739 150.487 18.4718 150.615 18.2696C150.53 18.2696 150.572 18.1079 150.487 18.1079C149.976 18.4718 149.464 19.0378 149.038 19.4018C149.464 18.7952 149.933 18.2292 150.572 17.7844C150.487 17.744 150.53 17.744 150.53 17.6631C150.572 17.5822 150.658 17.5822 150.658 17.4609C150.402 17.4609 150.359 17.7035 150.146 17.7844C150.189 17.6631 150.104 17.6631 150.061 17.5822C149.805 17.5418 149.677 17.8248 149.464 17.6631C149.421 17.7035 149.379 17.7844 149.294 17.8248C149.251 17.7844 149.251 17.7035 149.166 17.744C149.038 17.9057 148.313 18.027 148.228 18.1079C148.015 18.2292 148.015 18.5122 147.972 18.5931C147.972 18.5931 147.929 18.7144 147.929 18.8357C147.801 18.8761 147.844 18.957 147.716 18.9165C147.332 19.4826 146.565 19.887 146.309 20.5339C146.309 20.5743 146.309 20.5743 146.224 20.6552C146.181 20.6956 145.627 21.5852 145.457 21.9491C145.457 21.9895 145.329 22.1917 145.244 22.313C145.244 22.2726 145.244 22.2321 145.201 22.2321C144.945 22.6365 144.647 23.0408 144.391 23.4047C144.348 23.4452 144.263 23.526 144.263 23.526C144.263 23.5665 143.624 24.3347 143.41 24.7391C143.368 24.8199 143.027 25.3456 142.771 25.7499C142.771 25.7903 142.686 25.9925 142.473 26.316C142.345 26.4373 141.876 26.9225 141.748 27.2055C141.705 27.246 141.449 27.6099 141.407 27.7312C141.407 27.7716 141.023 28.4186 140.938 28.4994C140.682 28.6612 140.554 28.8633 140.384 29.0251C140.341 29.6316 139.446 29.9551 140.043 30.5211C140.725 30.0359 141.236 29.3486 141.918 28.8633C141.961 28.8229 142.089 28.7016 142.132 28.6612C142.473 29.2273 142.856 29.7529 143.41 30.1168C143.794 30.0359 144.007 30.3998 144.263 30.602C144.391 30.6829 144.604 30.7233 144.775 30.8042C145.244 31.0468 145.585 31.2894 146.139 31.4107C146.864 31.532 147.375 31.5724 147.972 31.3298C149.464 30.8042 151.041 29.8742 151.979 29.0251C152.15 29.3486 152.448 29.5912 152.789 29.7529C152.875 29.7933 152.96 29.8338 153.045 29.8742C153.471 30.1168 154.196 30.319 154.878 30.2381C154.878 30.1168 154.963 29.9955 155.006 29.9955C155.091 29.9551 154.58 29.672 154.708 29.7125C154.708 29.7125 154.878 29.7933 154.921 29.7529C154.921 29.7125 154.75 29.5507 154.793 29.5507C154.963 29.5912 155.262 29.7933 155.304 29.7933C155.475 29.8338 155.603 29.8338 155.688 29.7933C156.114 29.9146 156.413 29.6316 156.711 29.4294C156.37 29.3081 156.157 29.3486 155.773 29.1868C155.603 29.106 155.091 28.8633 155.091 28.7825C154.324 28.5803 153.812 27.9334 153.983 26.9225C154.836 25.8712 155.816 24.9412 156.626 23.8899C157.052 23.5665 157.308 23.0813 157.564 22.5961C158.246 22.1513 158.331 21.1809 158.928 20.6552ZM143.155 27.5694C142.984 27.1247 143.41 26.4777 143.794 26.1947C143.581 26.5586 143.453 27.246 143.666 27.6503C143.837 28.0142 144.263 28.4186 144.604 28.6207C144.093 28.4994 143.325 28.0547 143.155 27.5694ZM145.926 23.1217C146.011 22.9599 146.096 22.8386 146.181 22.6769C146.352 22.3938 146.437 22.0299 146.608 21.7469C146.864 21.3426 147.162 20.8169 147.46 20.5743C147.716 20.3721 148.057 20.3317 148.27 20.0891C148.313 20.0891 148.313 20.0891 148.356 20.1295C148.228 20.4126 147.972 20.5743 147.844 20.8978C147.716 20.8978 147.716 21.0595 147.503 21.0191C146.693 21.9086 146.224 22.9599 145.542 23.9303C145.499 23.6069 145.798 23.4047 145.926 23.1217ZM151.937 26.5182C153.301 25.3456 154.537 24.0517 155.645 22.677C155.731 22.6365 155.731 22.7174 155.773 22.7983C154.963 23.6878 154.409 24.7795 153.386 25.4669C152.96 25.8713 152.747 26.4373 151.937 26.5182ZM153.685 25.7095C153.599 25.7499 153.429 25.5882 153.471 25.5477C154.537 24.6178 155.475 23.5665 156.328 22.4343C156.413 22.3939 156.413 22.4747 156.413 22.5152C155.816 23.243 154.111 25.5882 153.685 25.7095Z" fill="white"/>
<path fill-rule="evenodd" clip-rule="evenodd" d="M141.961 22.3535C142.004 21.6257 141.876 21.1405 141.705 20.534C141.279 18.9166 140.256 17.9866 138.806 17.2992C138.38 17.0162 138.039 16.8949 137.911 16.8545C137.655 16.7332 137.229 16.6119 136.888 16.5714C136.547 16.531 136.248 16.7332 135.865 16.6927C135.438 16.6523 135.097 16.2884 134.501 16.4905C132.881 17.0162 131.602 17.9057 130.493 18.9166C130.451 18.957 130.493 19.0783 130.408 19.1188C130.11 19.4422 129.598 19.6444 129.3 20.0083C129.214 20.1296 129.214 20.2509 129.129 20.3722C129.044 20.4935 128.873 20.5744 128.788 20.7361C128.575 21.0596 128.404 21.4235 128.149 21.747C127.68 22.2726 127.339 22.8791 126.998 23.4857C126.784 23.8496 126.614 24.2539 126.486 24.6582C126.273 24.8604 125.974 25.1839 125.847 25.5074C125.719 25.8308 125.761 26.5991 125.761 26.8417C125.761 27.0034 125.676 27.1652 125.676 27.2865C125.676 27.3673 125.719 27.4886 125.761 27.6099C125.761 27.8525 125.676 28.0547 125.719 28.2165C125.847 28.7825 126.145 29.2273 126.315 29.6721C126.443 29.6721 126.315 29.389 126.443 29.389C126.614 29.8338 126.87 30.1977 127.253 30.4403C127.509 30.6021 127.85 30.6829 128.106 30.8447C128.234 30.9255 128.276 31.0468 128.362 31.1277C128.49 31.2086 128.66 31.2086 128.831 31.3299C129.001 31.4512 129.086 31.6129 129.257 31.6938C129.428 31.7747 130.195 31.9768 130.962 31.896C131.644 31.8555 132.284 31.4916 132.923 31.5321C132.838 31.5321 132.625 31.8555 132.71 31.8555C133.904 31.4512 135.097 31.0468 136.121 30.4808C135.907 30.6829 135.481 30.7638 135.353 31.0468C136.803 30.4808 138.082 29.1869 139.19 27.8525C139.702 27.246 140.213 26.5587 140.682 25.9117C141.279 24.9817 141.833 23.7687 141.961 22.3535ZM128.362 22.7579C128.404 22.9196 127.765 23.8496 127.722 24.0113C127.637 23.8092 128.106 22.7983 128.362 22.7579ZM131.005 31.0065C131.261 30.683 131.815 30.966 132.198 30.9256C131.943 31.2086 131.388 31.1682 131.005 31.0065ZM131.857 30.6425C132.71 30.3595 133.435 29.9956 134.287 29.7125C134.117 30.036 133.691 30.1573 133.179 30.3999C132.71 30.6021 132.412 30.8851 131.857 30.6425ZM133.307 30.683C134.117 30.2382 134.799 29.7126 135.694 29.3487C135.694 29.3082 135.737 29.3082 135.779 29.3082C135.183 29.9956 134.16 30.2786 133.307 30.683ZM136.462 26.5587C135.694 27.8526 134.373 28.6208 132.753 29.106C131.261 29.47 129.598 28.9039 128.703 28.2165L128.66 28.1761C128.276 27.6909 127.68 27.5695 127.765 26.6396C127.807 26.1139 128.106 25.5883 128.319 25.0626C128.447 24.82 128.49 24.5774 128.617 24.3753C128.831 23.9709 129.086 23.4857 129.427 23.1622C130.024 21.7875 130.792 20.534 131.857 19.5636C131.943 19.5232 131.943 19.4827 132.071 19.4018C132.284 19.2401 132.412 19.1188 132.667 18.9571C133.307 18.5123 134.117 18.2697 134.927 18.0675C135.438 18.0271 136.078 18.1888 136.632 18.2293C137.186 18.2293 137.655 18.5527 137.868 18.7145C138.252 19.2401 138.806 19.6445 138.892 20.4531C138.892 20.6149 139.019 20.7766 139.062 20.9383C139.105 21.2214 139.019 21.5853 138.977 21.8279C138.977 21.9088 138.934 22.1109 138.892 22.2322C138.721 22.6366 138.423 23.324 138.252 23.607C138.124 23.7687 137.954 24.0922 137.868 24.2944C137.783 24.537 137.698 24.7796 137.613 24.9413C137.527 25.1031 137.314 25.3457 137.272 25.3861C137.058 25.5883 136.888 25.9522 136.803 26.0735C136.803 26.1139 136.717 26.2757 136.675 26.3161C136.589 26.3565 136.547 26.4778 136.462 26.5587ZM138.337 26.2352C137.783 27.0439 137.229 27.8526 136.675 28.6209C136.888 27.8122 137.399 26.7204 138.337 26.2352ZM139.915 24.5774C139.403 25.5882 138.337 27.1652 137.485 28.0952C138.252 26.9226 139.147 25.3456 139.19 24.9817C139.275 24.82 139.488 24.4561 139.531 24.3348C139.616 23.9709 139.872 23.7687 140 23.4452C140 23.8091 140.043 24.2539 139.915 24.5774Z" fill="white"/>
<path fill-rule="evenodd" clip-rule="evenodd" d="M128.532 16.814C128.532 16.6523 128.575 16.5714 128.618 16.4501C128.575 16.3693 128.404 16.3288 128.447 16.1671C128.191 16.2075 127.978 16.4501 127.808 16.531C127.765 16.5714 127.722 16.5714 127.722 16.6119C127.68 16.6523 127.594 16.6523 127.552 16.6927C127.253 17.0162 127.083 17.4205 126.827 17.8249C126.401 18.4314 126.06 18.9975 125.719 19.6444C125.548 19.9275 125.463 20.2914 125.164 20.4935C125.122 20.2105 125.292 20.0892 125.378 19.887C125.676 19.2805 125.974 18.5931 126.358 17.9866C126.827 17.2184 127.424 16.4501 127.808 15.8032C127.85 15.6819 127.722 15.601 127.722 15.4393C127.978 15.0754 127.552 14.7519 127.424 14.5093C127.296 14.5497 127.211 14.7519 127.083 14.7115C127.211 14.671 127.296 14.5093 127.211 14.3475C127.168 14.4688 127.083 14.3475 127.125 14.3475C126.955 14.3071 126.87 14.5902 126.699 14.7115C126.614 14.7519 126.571 14.671 126.486 14.671C126.017 14.9945 125.804 15.4393 125.463 15.9245C125.25 16.248 125.037 16.531 124.823 16.814C124.61 17.0971 124.482 17.5014 124.312 17.8249C124.099 18.1484 123.885 18.4718 123.758 18.7953C123.502 19.4827 123.459 20.2105 123.076 20.8574C123.076 20.8979 122.948 21.3022 122.777 21.464C122.905 20.9787 123.161 20.2914 123.374 19.604C123.161 19.7253 123.161 19.9275 123.076 20.0892C122.777 20.817 122.393 21.5448 122.095 22.2726C121.839 22.8792 121.498 23.607 121.157 24.1326C120.816 25.0222 120.177 25.5882 119.921 26.5182C120.006 26.5587 120.134 26.2352 120.304 26.1139C120.347 26.1948 120.262 26.3969 120.219 26.4778C120.091 26.68 119.836 27.1247 119.665 27.4886C119.58 27.6504 119.452 27.7717 119.409 27.9334C119.281 28.2165 119.281 28.4995 119.196 28.7421C119.111 28.9847 118.94 29.1869 118.77 29.3891C118.429 29.8338 118.258 30.319 117.917 30.7234C117.704 30.966 117.576 31.249 117.533 31.3299C117.448 31.5725 117.235 31.8555 117.192 31.9364C117.15 31.9768 116.723 32.7451 116.255 32.9068C116.212 32.9473 116.169 32.9877 116.084 33.0281C115.53 33.8368 115.189 34.5646 114.336 35.0094C114.166 35.0903 114.123 35.1711 114.038 35.2116C113.654 35.6968 113.228 36.0203 112.503 36.182C112.887 36.0203 113.356 35.6159 113.526 35.4137C113.441 35.4137 113.185 35.535 113.015 35.6159C112.588 35.8585 112.716 35.8181 112.418 35.9394C111.864 36.4246 111.224 36.7885 110.457 36.9907C110.414 36.9907 110.371 36.9907 110.329 37.0311C110.073 37.112 110.03 36.9907 109.817 36.9098C109.732 36.8694 109.647 36.7481 109.604 36.6672C109.263 36.0607 108.965 35.6159 109.22 34.7668C109.434 33.9985 110.244 33.0686 110.84 32.7451C110.968 32.4216 111.309 32.0173 111.054 31.5725C111.054 31.5321 111.011 31.4512 111.011 31.4108C110.968 30.8043 110.883 30.5212 110.627 30.1169C110.713 29.9956 110.84 29.9551 110.84 29.753C110.755 29.6721 110.713 29.5104 110.67 29.3891C110.67 29.3082 110.627 29.2273 110.457 29.1869C110.371 29.1465 110.414 28.9847 110.371 28.9847C110.03 28.9443 110.158 29.2678 109.945 29.3486C109.86 29.3082 109.903 29.2678 109.86 29.2678C109.647 29.3891 109.306 29.3891 109.22 29.4699C108.709 30.1977 108.325 31.0469 107.6 31.6129C107.6 31.7747 107.558 31.7747 107.473 31.896C107.387 31.9364 107.387 32.0173 107.302 32.0173C106.961 32.5025 106.62 33.109 106.407 33.6751C106.322 33.9177 106.364 34.1199 106.279 34.4029C106.236 34.5242 106.108 34.6455 106.066 34.7668C105.938 35.2116 105.81 35.8585 105.853 36.3437C105.895 36.9098 105.98 37.5568 106.236 38.0824C106.279 38.1633 106.322 38.2037 106.322 38.2441C106.492 38.4463 107.004 39.0124 107.387 39.1337C107.43 39.1741 107.43 39.255 107.473 39.2954C108.197 39.8211 109.22 40.1445 110.286 40.2254C110.329 40.2254 110.329 40.3467 110.414 40.3063C112.418 40.0232 113.739 39.1741 115.061 38.1633C116.553 37.0715 117.789 35.899 118.855 34.4838C119.281 33.9177 119.708 33.392 120.049 32.7855C120.39 32.4621 120.603 32.0577 120.773 31.6129C122.266 29.7125 122.99 27.2056 124.056 24.9413C124.056 24.9009 124.141 24.7796 124.141 24.7796C124.482 23.5665 125.164 22.5961 125.719 21.5853C126.699 20.0083 127.509 18.2697 128.532 16.814ZM115.53 36.5055C115.53 36.5863 113.611 38.0015 113.484 38.042C112.929 38.4059 112.503 38.5272 112.375 38.5272C112.247 38.5272 110.968 38.3654 111.139 38.2441C111.181 38.2441 112.205 38.325 112.759 38.0824C113.825 37.6781 114.976 36.7885 115.445 36.3842C115.53 36.4246 115.53 36.465 115.53 36.5055ZM115.914 36.2629C115.786 36.0203 116.382 35.6159 116.51 35.6159C116.382 35.7777 116.127 35.9798 115.914 36.2629Z" fill="white"/>
<path fill-rule="evenodd" clip-rule="evenodd" d="M129.513 13.0132C129.47 13.094 129.939 13.1749 130.024 13.2558C130.11 13.3366 130.067 13.4579 130.152 13.5388C130.706 13.9431 131.431 13.2558 131.857 13.094C132.241 12.7706 132.625 12.3662 132.966 11.9619C133.008 11.9214 133.094 11.7193 133.094 11.6788C133.136 11.2745 132.71 10.8701 132.71 10.5062C132.71 10.3849 132.838 10.2636 132.881 10.1423C133.094 9.49539 133.136 8.92931 132.753 8.48453C131.73 8.20149 130.621 9.37409 129.982 9.8593C129.854 9.94016 129.683 10.021 129.598 10.0615C129.385 10.2636 129.385 10.3041 129.129 10.4658C128.959 10.6275 128.447 10.9106 128.49 11.1936C128.617 11.881 128.703 12.0023 129.001 12.5279C129.172 12.7706 129.342 12.8514 129.513 13.0132Z" fill="white"/>
<path fill-rule="evenodd" clip-rule="evenodd" d="M0 29.7933L3.36784 7.23108H65.5237L62.1985 29.7933H29.7564L26.1328 8.84845L13.0024 29.7933H0ZM10.3167 13.6601H17.905L18.5871 9.81888H5.96834L3.45311 27.6503H8.31304L9.37881 20.3722H15.6456L16.1571 16.7736H9.89038L10.3167 13.6601ZM37.5152 15.0753C37.7284 15.3179 38.24 15.5605 39.0926 15.7627C41.1815 16.3692 42.6736 16.9353 43.5262 17.4609C44.3788 18.027 44.9756 18.6739 45.3167 19.4422C45.6577 20.2104 45.743 21.0596 45.6151 21.9895C45.4872 23.0813 45.0609 24.0921 44.3788 24.9817C43.6967 25.8712 42.8015 26.5586 41.7357 27.0034C40.6699 27.4482 39.3484 27.6099 37.8136 27.5695C35.0853 27.4482 33.2948 26.8012 32.3995 25.6691C31.8453 24.9817 31.5043 24.173 31.2911 23.243L35.8953 21.1809C35.8953 21.9895 36.0231 22.6365 36.2789 23.0813C36.7052 23.8091 37.3873 24.173 38.3252 24.2134C39.0499 24.2539 39.6041 24.0921 40.0305 23.7686C40.4568 23.4452 40.7126 23.0408 40.7552 22.5556C40.7978 22.1108 40.6699 21.7065 40.3715 21.3426C40.0731 20.9787 39.2631 20.6148 37.9842 20.2509C35.8953 19.6444 34.4458 18.8761 33.6358 17.9866C32.8258 17.097 32.4848 15.9649 32.6553 14.6305C32.7832 13.741 33.1242 12.9323 33.6784 12.164C34.2753 11.3958 35.0426 10.8297 36.0658 10.4254C37.0889 10.021 38.4105 9.85929 40.0731 9.89973C42.1194 9.9806 43.6115 10.4658 44.592 11.3149C45.2314 11.881 45.6577 12.6897 45.8283 13.6601L41.3094 15.3988C41.2668 14.6305 41.0962 14.024 40.7552 13.6601C40.4141 13.2962 39.8599 13.094 39.1778 13.0536C38.6236 13.0132 38.1547 13.1345 37.8136 13.3771C37.4726 13.6197 37.3021 13.9431 37.2594 14.3071C37.2168 14.5901 37.3021 14.8731 37.5152 15.0753ZM56.8696 13.6601H61.6443L62.1985 9.85934H47.2777L46.6809 13.6601H51.8818L49.8782 27.6099H54.866L56.8696 13.6601Z" fill="white"/>
<path d="M12.5761 37.3141L24.1291 18.8761L27.4543 37.3141H12.5761Z" fill="white"/>
<path d="M35.7674 33.1898C34.8295 33.1898 34.1474 33.6346 34.0195 34.322C33.8916 35.0902 34.4458 35.3328 34.9574 35.4946L35.4263 35.6159C35.8952 35.7372 35.9805 35.8585 35.9379 36.0202C35.8952 36.3437 35.4263 36.4246 35.1705 36.4246C34.9147 36.4246 34.7016 36.3437 34.5737 36.2224C34.4458 36.0606 34.4458 35.8585 34.4458 35.8585V35.7776H33.4653V35.8585C33.4653 35.8989 33.38 36.3841 33.7211 36.7885C33.9769 37.0715 34.4032 37.2332 34.9574 37.2332C35.7247 37.2332 36.6626 36.9502 36.8331 36.1011C36.961 35.2924 36.3216 35.0094 35.81 34.8881L35.341 34.7668C34.9574 34.6454 34.9147 34.5241 34.9147 34.4028C34.9574 34.1602 35.1705 34.0389 35.5542 34.0389C35.7674 34.0389 35.9379 34.0794 36.0231 34.2007C36.151 34.3624 36.1084 34.5646 36.1084 34.5646V34.6454H37.0889V34.5646C37.0889 34.5241 37.1742 34.0389 36.8331 33.6346C36.7052 33.3111 36.3216 33.1898 35.7674 33.1898Z" fill="white"/>
<path d="M43.1425 34.7264H41.8636L42.1194 33.2708H41.1815L40.4568 37.112H41.4373L41.7357 35.4946H42.972L42.7162 37.112H43.6541L44.3362 33.2708H43.3983L43.1425 34.7264Z" fill="white"/>
<path fill-rule="evenodd" clip-rule="evenodd" d="M47.8319 34.6454C48.0024 33.7559 48.7272 33.1898 49.7929 33.1898C50.3045 33.1898 50.7308 33.3516 50.9866 33.6346C51.1998 33.8772 51.285 34.2411 51.1998 34.6859L51.0292 35.7372C50.8587 36.6267 50.134 37.1928 49.0682 37.1928C48.5566 37.1928 48.1303 37.0311 47.8746 36.748C47.6614 36.5054 47.5761 36.1415 47.6614 35.6967L47.8319 34.6454ZM48.7698 34.6859L48.5993 35.7372C48.5566 35.9798 48.5993 36.1415 48.6845 36.2628C48.7698 36.3841 48.9403 36.4246 49.1961 36.4246C49.7077 36.4246 50.0061 36.182 50.0914 35.6968L50.2619 34.6455C50.3045 34.4029 50.2619 34.2411 50.1766 34.1198C50.0914 33.9985 49.9208 33.9581 49.665 33.9581C49.1535 33.9581 48.8551 34.2007 48.7698 34.6859Z" fill="white"/>
<path fill-rule="evenodd" clip-rule="evenodd" d="M57.1681 33.2708C57.6797 33.2708 58.106 33.3921 58.3191 33.6347C58.4896 33.8368 58.5323 34.1199 58.4896 34.4433C58.3191 35.1712 57.7223 35.5755 56.7418 35.5755H55.8039L55.5481 37.112H54.6102L55.2923 33.2708H57.1681ZM56.9976 34.039H56.1023L55.9744 34.8072H56.827C57.4239 34.8072 57.5091 34.6051 57.5518 34.4029C57.5944 34.2816 57.5518 34.2007 57.5091 34.1603C57.4239 34.0794 57.2533 34.039 56.9976 34.039Z" fill="white"/>
<path d="M88.6723 31.1277C88.4592 31.1277 88.246 30.9659 88.246 30.7233V10.021C88.246 9.81887 88.4166 9.6167 88.6723 9.6167C88.9281 9.6167 89.0987 9.77844 89.0987 10.021V30.7638C89.0987 30.9659 88.8855 31.1277 88.6723 31.1277Z" fill="white"/>
<path d="M99.5859 20.7362H77.7162C77.5031 20.7362 77.2899 20.5744 77.2899 20.3318C77.2899 20.1297 77.4604 19.9275 77.7162 19.9275H99.5859C99.7991 19.9275 100.012 20.0892 100.012 20.3318C99.9696 20.534 99.7991 20.7362 99.5859 20.7362Z" fill="white"/>
</g>
</svg>
